<?xml version="1.0" encoding="UTF-8" standalone="no"?>
<svg width="90px" height="90px" viewBox="0 0 90 90" version="1.1" xmlns="http://www.w3.org/2000/svg" xmlns:xlink="http://www.w3.org/1999/xlink">
    <!-- Generator: Sketch 39.1 (31720) - http://www.bohemiancoding.com/sketch -->
    <title>btn_arrow_hover</title>
    <desc>Created with Sketch.</desc>
    <defs></defs>
    <g id="Page-1" stroke="none" stroke-width="1" fill="none" fill-rule="evenodd">
        <g id="Artboard" transform="translate(-520.000000, -271.000000)" fill="#FFFFFF">
            <path d="M579.64571,317 L569.097241,327.548469 C568.706717,327.938993 568.706717,328.572158 569.097241,328.962683 C569.487765,329.353207 570.12093,329.353207 570.511455,328.962683 L582.962683,316.511455 L583.669789,315.804348 L582.962683,315.097241 L570.511455,302.646013 C570.12093,302.255489 569.487765,302.255489 569.097241,302.646013 C568.706717,303.036537 568.706717,303.669702 569.097241,304.060227 L580.037015,315 L547.586957,315 C547.034672,315 546.586957,315.447715 546.586957,316 C546.586957,316.552285 547.034672,317 547.586957,317 L579.64571,317 Z M520,316 C520,291.147186 540.141722,271 565,271 C589.852814,271 610,291.141722 610,316 C610,340.852814 589.858278,361 565,361 C540.147186,361 520,340.858278 520,316 Z" id="btn_arrow_hover"></path>
        </g>
    </g>
</svg>