<?xml version="1.0" encoding="UTF-8" standalone="no"?>
<svg width="90px" height="90px" viewBox="0 0 90 90" version="1.1" xmlns="http://www.w3.org/2000/svg" xmlns:xlink="http://www.w3.org/1999/xlink">
    <!-- Generator: Sketch 39.1 (31720) - http://www.bohemiancoding.com/sketch -->
    <title>btn_arrow</title>
    <desc>Created with Sketch.</desc>
    <defs></defs>
    <g id="Page-1" stroke="none" stroke-width="1" fill="none" fill-rule="evenodd">
        <g id="Artboard" transform="translate(-411.000000, -273.000000)" fill="#F9592C">
            <path d="M470.64571,319 L460.097241,329.548469 C459.706717,329.938993 459.706717,330.572158 460.097241,330.962683 C460.487765,331.353207 461.12093,331.353207 461.511455,330.962683 L473.962683,318.511455 L474.669789,317.804348 L473.962683,317.097241 L461.511455,304.646013 C461.12093,304.255489 460.487765,304.255489 460.097241,304.646013 C459.706717,305.036537 459.706717,305.669702 460.097241,306.060227 L471.037015,317 L438.586957,317 C438.034672,317 437.586957,317.447715 437.586957,318 C437.586957,318.552285 438.034672,319 438.586957,319 L470.64571,319 Z M411,318 C411,293.147186 431.141722,273 456,273 C480.852814,273 501,293.141722 501,318 C501,342.852814 480.858278,363 456,363 C431.147186,363 411,342.858278 411,318 Z" id="btn_arrow"></path>
        </g>
    </g>
</svg>