<?xml version="1.0" encoding="UTF-8" standalone="no"?>
<svg width="36px" height="36px" viewBox="0 0 36 36" version="1.1" xmlns="http://www.w3.org/2000/svg" xmlns:xlink="http://www.w3.org/1999/xlink">
    <!-- Generator: Sketch 39.1 (31720) - http://www.bohemiancoding.com/sketch -->
    <title>icon_type_sucbadiving</title>
    <desc>Created with Sketch.</desc>
    <defs>
        <circle id="path-1" cx="16" cy="16" r="16"></circle>
        <mask id="mask-2" maskContentUnits="userSpaceOnUse" maskUnits="objectBoundingBox" x="-2" y="-2" width="36" height="36">
            <rect x="-2" y="-2" width="36" height="36" fill="white"></rect>
            <use xlink:href="#path-1" fill="black"></use>
        </mask>
    </defs>
    <g id="Page-1" stroke="none" stroke-width="1" fill="none" fill-rule="evenodd">
        <g id="Artboard" transform="translate(-329.000000, -9878.000000)">
            <g id="icon_type_sucbadiving" transform="translate(331.000000, 9880.000000)">
                <g id="Oval-2">
                    <use fill="#0A00FF" fill-rule="evenodd" xlink:href="#path-1"></use>
                    <use stroke="#FFFFFF" mask="url(#mask-2)" stroke-width="4" xlink:href="#path-1"></use>
                </g>
                <g id="sea-1" transform="translate(7.000000, 6.000000)" fill="#FFFFFF">
                    <g id="Layer_1">
                        <g>
                            <path d="M17.1743143,9.47172341 L16.9581235,9.47172341 C16.8297271,8.68190898 16.5202122,7.95104747 16.0727565,7.32792482 L16.0727565,0.906734682 C16.0727943,0.451347576 15.7110876,0.0822056849 15.2649575,0.0822056849 C14.8188273,0.0822056849 14.4571206,0.451347576 14.4571206,0.906734682 L14.4571206,5.88367505 C13.7609773,5.49620944 12.9608669,5.27501037 12.1052697,5.27501037 L5.89478478,5.27501037 C3.45722258,5.27501037 1.42840788,7.09393007 1.04189304,9.47180072 L0.825778028,9.47180072 C0.379647864,9.47180072 0.0179411765,9.84094262 0.0179411765,10.2963297 C0.0179411765,10.7516782 0.379609989,11.1208587 0.825778028,11.1208587 L1.04147641,11.1208587 C1.42643838,13.5030977 3.45131408,15.3176877 5.89482266,15.3176877 C8.04707213,15.3176877 7.44205615,15.5943219 9.00008403,13.7102254 C10.5610662,15.597917 9.99786424,15.3176877 12.1053454,15.3176877 C12.9580642,15.3176877 13.7591214,15.0964887 14.4571964,14.7078247 L14.4571964,16.272493 C14.4571964,16.7271456 14.0948079,17.097022 13.6493595,17.097022 L11.2466424,17.097022 C11.0173468,16.4400353 10.4020289,15.9683733 9.68066073,15.9683733 L8.31946946,15.9683733 C7.40300698,15.9683733 6.65747458,16.7293491 6.65747458,17.6647096 L6.65747458,18.1787017 C6.65747458,19.1141008 7.40308273,19.875038 8.31946946,19.875038 L9.68066073,19.875038 C10.4022182,19.875038 11.0175362,19.4031441 11.246756,18.7460027 L13.6493217,18.7460027 C14.985629,18.7460027 16.0727943,17.6363735 16.0727943,16.2724543 L16.0727943,13.264696 C16.5199471,12.642965 16.8299922,11.912722 16.9584265,11.1208587 L17.17439,11.1208587 C17.6205202,11.1208587 17.9822269,10.7517168 17.9822269,10.2963297 C17.9821511,9.8408653 17.6204823,9.47172341 17.1743143,9.47172341 L17.1743143,9.47172341 Z" id="Shape"></path>
                        </g>
                    </g>
                </g>
            </g>
        </g>
    </g>
</svg>