<?xml version="1.0" encoding="UTF-8" standalone="no"?>
<svg width="164px" height="53px" viewBox="0 0 164 53" version="1.1" xmlns="http://www.w3.org/2000/svg" xmlns:xlink="http://www.w3.org/1999/xlink">
    <!-- Generator: Sketch 39.1 (31720) - http://www.bohemiancoding.com/sketch -->
    <title>logo</title>
    <desc>Created with Sketch.</desc>
    <defs></defs>
    <g id="Page-1" stroke="none" stroke-width="1" fill="none" fill-rule="evenodd">
        <g id="Artboard" transform="translate(-198.000000, -201.000000)">
            <g id="logo" transform="translate(199.000000, 202.000000)">
                <g id="OK">
                    <g id="surfing" transform="translate(7.000000, 7.000000)" fill="#FFFFFF">
                        <g id="Capa_1">
                            <path d="M4.73740833,29.1043317 C4.66693498,29.518011 4.30565236,29.8106846 3.89675518,29.8106846 C3.84942516,29.8106846 3.8016209,29.8067296 3.75343723,29.7987253 C2.92169995,29.6591686 2.1003013,29.4651828 1.31181549,29.222324 C0.861468977,29.0836148 0.609737795,28.6087263 0.749451447,28.1617116 C0.889165098,27.7146969 1.36730259,27.4647755 1.81774395,27.6033905 C2.53385941,27.8240258 3.28089588,28.0002138 4.03798642,28.1273404 C4.50284495,28.2054997 4.81594391,28.6429093 4.73740833,29.1043317 L4.73740833,29.1043317 Z M3.40277778,25.6576947 C3.45096145,25.6657931 3.49886056,25.669654 3.54609573,25.669654 C3.95508776,25.669654 4.31637038,25.3769803 4.38674888,24.963301 C4.4653793,24.5017845 4.1521855,24.0643749 3.68732697,23.9863097 C2.92995188,23.8591831 2.18301026,23.6829009 1.46717935,23.4623599 C1.01730708,23.323839 0.538600498,23.5735721 0.398886846,24.0205868 C0.259173194,24.4676015 0.510904376,24.9424899 0.961156043,25.0811992 C1.7493573,25.324058 2.57075596,25.5180438 3.40277778,25.6576947 L3.40277778,25.6576947 Z M22.0523213,17.0800405 C25.2165083,15.7023651 27.3439877,13.1699094 27.8890891,10.1319608 C28.2443014,8.15227036 27.883493,6.13754948 26.937367,4.51927519 C28.852383,4.79019606 30.4869284,5.62395809 31.8122637,7.00944948 C34.2014335,9.5071572 35.3509174,13.5714411 34.9658275,18.1602398 C34.9266545,18.6266531 35.2757964,19.0362832 35.7456819,19.0751745 C35.7697738,19.077152 35.7936759,19.0781879 35.8174832,19.0781879 C36.2568271,19.0781879 36.6300608,18.7435154 36.6671471,18.3010207 C37.092643,13.2311185 35.7742317,8.69006288 33.0502423,5.84233331 C31.0099298,3.70943179 28.2617537,2.63318758 25.1000328,2.73319382 C24.7567717,2.74392895 24.4535371,2.95778411 24.3302324,3.2760714 C24.2069278,3.59426453 24.2877398,3.95483317 24.5352027,4.19119445 C25.9496019,5.54174957 26.5905963,7.70421979 26.2083519,9.83476711 C25.9477049,11.2871177 24.9721754,13.958 21.3667475,15.5278721 C20.9349915,15.7159252 20.7384629,16.2157681 20.9278778,16.6444201 C21.1170081,17.0728838 21.6203757,17.2679995 22.0523213,17.0800405 L22.0523213,17.0800405 Z M0.961250893,21.1606154 C1.7487882,21.4032859 2.57028171,21.5971775 3.40287263,21.7370167 C3.4510563,21.7451152 3.49895541,21.7489761 3.54619057,21.7489761 C3.95508776,21.7489761 4.31646523,21.4563024 4.38684373,21.0426231 C4.46547415,20.5811065 4.15228035,20.1436969 3.68742182,20.0656318 C2.92947763,19.9384111 2.18253601,19.7621289 1.4672742,19.541682 C1.01730708,19.4031611 0.538695347,19.6528942 0.398886846,20.0999089 C0.259268044,20.5469236 0.510904376,21.021812 0.961250893,21.1606154 L0.961250893,21.1606154 Z M17.4326652,5.9916835 C18.5420277,9.54049262 19.1529548,14.2429519 19.1529548,19.2327173 C19.1529548,25.9386915 18.0575353,32.0069611 16.2227621,35.4652749 C16.0750811,35.7436351 15.7842718,35.9178455 15.4674737,35.9178455 L9.64616639,35.9178455 C9.32936829,35.9178455 9.03855902,35.7436351 8.89087799,35.4653691 C7.05591512,32.0070553 5.96049559,25.9387857 5.96049559,19.2328114 C5.96049559,14.2430461 6.5714227,9.54068095 7.68087999,5.99177767 C8.90320846,2.08174072 10.5893521,0.0149450262 12.55682,0.0149450262 C14.524288,0.0149450262 16.2103368,2.08164655 17.4326652,5.9916835 L17.4326652,5.9916835 Z M17.4456597,19.2327173 C17.4456597,8.37610731 14.5981759,1.70987193 12.55682,1.70987193 C10.5153693,1.70987193 7.66779073,8.37620148 7.66779073,19.2327173 C7.66779073,25.2899693 8.62178931,30.9557655 10.1743845,34.2228245 L11.7031725,34.2228245 L11.7031725,16.7000733 C11.7031725,16.231965 12.085322,15.8525628 12.55682,15.8525628 C13.028318,15.8525628 13.4104676,16.231965 13.4104676,16.7000733 L13.4104676,34.2227303 L14.9392556,34.2227303 C16.4916611,30.9556714 17.4456597,25.2899693 17.4456597,19.2327173 L17.4456597,19.2327173 Z M35.9554895,22.5354658 C35.0687394,22.4685125 34.0413272,21.1007247 33.416552,19.7749357 C33.270104,19.4641818 32.9492274,19.2713261 32.6040692,19.287523 C32.2588162,19.303249 31.9572889,19.5242609 31.8401495,19.8470683 C31.286891,21.3729639 30.2438285,22.3317808 29.1179622,22.3493902 C28.0001582,22.3669054 26.9937077,21.4456615 26.3462634,19.8222079 C26.2115768,19.4843337 25.8756191,19.2701019 25.5091197,19.2878055 C25.1435689,19.3062624 24.8304699,19.5542063 24.7310674,19.9039456 C24.273702,21.512144 22.732299,22.3404443 21.5514199,22.5610795 C21.088079,22.6476197 20.7831371,23.0907736 20.8703988,23.5506893 C20.9475117,23.9576827 21.305854,24.2415987 21.7083014,24.2415987 C21.7606584,24.2415987 21.8137743,24.2367962 21.8671747,24.2268144 C23.3952986,23.9412975 24.7194009,23.1149747 25.5665038,21.9819473 C26.4935651,23.3311841 27.7413133,24.065034 29.1448047,24.0442229 C30.5279983,24.0226585 31.796898,23.2440788 32.6841224,21.9337334 C33.3993842,22.9960407 34.4686252,24.1231356 35.8259248,24.2255902 C36.2956207,24.2612798 36.7061303,23.9115404 36.7418887,23.4447505 C36.777647,22.9780547 36.4255648,22.5709671 35.9554895,22.5354658 L35.9554895,22.5354658 Z M35.9554895,28.5566515 C35.069024,28.4896982 34.0415169,27.1218162 33.4164571,25.7960272 C33.2699143,25.4852733 32.9498913,25.2915701 32.6039743,25.3087087 C32.2587213,25.3245289 31.957194,25.5454466 31.8401495,25.8682539 C31.286891,27.3941496 30.2438285,28.3529665 29.1179622,28.3705759 C28.0001582,28.3900686 26.9937077,27.4668472 26.3462634,25.8433936 C26.2115768,25.5055194 25.8756191,25.2909109 25.5091197,25.3089912 C25.1435689,25.3274481 24.8304699,25.575392 24.7310674,25.9251313 C24.273702,27.5332355 22.732299,28.3615358 21.5514199,28.582171 C21.088079,28.6687113 20.7831371,29.1118651 20.8703988,29.5717808 C20.9475117,29.9787742 21.305854,30.2626902 21.7083014,30.2626902 C21.7606584,30.2626902 21.8137743,30.2578877 21.8671747,30.2479059 C23.3952986,29.962389 24.7194009,29.1360662 25.5665038,28.0030388 C26.4801913,29.3327828 27.7082107,30.0658795 29.0841009,30.0658795 C29.1043039,30.0658795 29.1245069,30.0656911 29.1448047,30.0654086 C30.5279983,30.0438442 31.7969928,29.2650762 32.6843121,27.9547307 C33.3996687,29.0170381 34.4690994,30.1442271 35.8259248,30.2467759 C36.2961898,30.2812413 36.7061303,29.9327261 36.7418887,29.4660303 C36.777647,28.9993345 36.4255648,28.5921528 35.9554895,28.5566515 L35.9554895,28.5566515 Z" id="XMLID_746_"></path>
                        </g>
                    </g>
                    <circle id="Oval" stroke="#FFFFFF" stroke-width="2" cx="25.5" cy="25.5" r="25.5"></circle>
                </g>
                <path d="M63.4,19 L63.4,33 L69.28,33 C73.78,33 76.86,30.14 76.86,26 C76.86,21.84 73.82,19 69.42,19 L63.4,19 Z M66.96,21.84 L69.34,21.84 C71.6,21.84 73.24,23.54 73.24,26.02 C73.24,28.48 71.68,30.16 69.5,30.16 L66.96,30.16 L66.96,21.84 Z M84.1181819,33 L84.1181819,19 L80.5581819,19 L80.5581819,33 L84.1181819,33 Z M96.4363637,33 L101.936364,19 L98.2763637,19 L94.6963637,29.3 L91.1163637,19 L87.3163637,19 L92.7563637,33 L96.4363637,33 Z M113.354546,30.42 L114.354546,33 L118.154546,33 L112.254546,19 L108.594546,19 L102.554546,33 L106.214546,33 L107.234546,30.42 L113.354546,30.42 Z M112.314546,27.72 L108.274546,27.72 L110.314546,22.54 L112.314546,27.72 Z M130.472727,21.86 L130.472727,18.98 L118.512727,18.98 L118.512727,21.86 L122.692727,21.86 L122.692727,33 L126.252727,33 L126.252727,21.86 L130.472727,21.86 Z M141.610909,30.42 L142.610909,33 L146.410909,33 L140.510909,19 L136.850909,19 L130.810909,33 L134.470909,33 L135.490909,30.42 L141.610909,30.42 Z M140.570909,27.72 L136.530909,27.72 L138.570909,22.54 L140.570909,27.72 Z M162.449091,33 L162.449091,19 L159.129091,19 L159.129091,27.64 L152.669091,19 L149.529091,19 L149.529091,33 L152.869091,33 L152.869091,24.38 L159.309091,33 L162.449091,33 Z" id="DIVATAN" fill="#F3F7F8"></path>
            </g>
        </g>
    </g>
</svg>