<?xml version="1.0" encoding="UTF-8" standalone="no"?>
<svg width="30px" height="30px" viewBox="0 0 30 30" version="1.1" xmlns="http://www.w3.org/2000/svg" xmlns:xlink="http://www.w3.org/1999/xlink">
    <!-- Generator: Sketch 39 (31667) - http://www.bohemiancoding.com/sketch -->
    <title>logo</title>
    <desc>Created with Sketch.</desc>
    <defs></defs>
    <g id="Page-1" stroke="none" stroke-width="1" fill="none" fill-rule="evenodd">
        <g id="Artboard" transform="translate(-198.000000, -222.000000)">
            <g id="OK" transform="translate(198.000000, 222.000000)" fill="#FFFFFF">
                <path d="M7.21572869,20.9979252 C7.1758682,21.2319067 6.97152283,21.3974461 6.74024614,21.3974461 C6.71347577,21.3974461 6.68643716,21.395209 6.65918396,21.3906817 C6.18874432,21.3117469 5.72415232,21.2020265 5.27817618,21.0646629 C5.0234553,20.9862074 4.88107341,20.7176054 4.96009697,20.464769 C5.03912053,20.2119326 5.30956029,20.0705744 5.56433481,20.1489765 C5.96937749,20.2737702 6.39190943,20.3734241 6.82012807,20.4453283 C7.0830571,20.489536 7.26014927,20.7369396 7.21572869,20.9979252 L7.21572869,20.9979252 Z M6.46084716,19.0484698 C6.48810037,19.0530504 6.51519262,19.0552341 6.54190935,19.0552341 C6.77323968,19.0552341 6.97758506,18.8896948 7.0173919,18.6557132 C7.06186612,18.3946745 6.8847203,18.1472708 6.62179127,18.1031164 C6.1934117,18.0312122 5.77093341,17.9315051 5.36605167,17.8067646 C5.11159903,17.7284157 4.84083739,17.8696675 4.76181383,18.1225038 C4.68279027,18.3753402 4.82517216,18.6439423 5.07983939,18.7223977 C5.52565458,18.8597613 5.99024658,18.9694818 6.46084716,19.0484698 L6.46084716,19.0484698 Z M17.0092315,14.1968555 C18.79893,13.4176273 20.0022555,11.9852429 20.3105708,10.2669462 C20.5114827,9.14721174 20.3074055,8.00766373 19.7722664,7.09235022 C20.8554202,7.24558601 21.7799369,7.71717087 22.5295609,8.50081984 C23.8809013,9.91355045 24.5310619,12.2123535 24.3132508,14.8078279 C24.2910942,15.0716364 24.4885726,15.3033276 24.754345,15.3253249 C24.7679716,15.3264434 24.7814909,15.3270293 24.7949566,15.3270293 C25.0434543,15.3270293 25.2545593,15.1377349 25.2755357,14.8874551 C25.5162008,12.0198634 24.7704931,9.45139303 23.2297751,7.84068626 C22.0757521,6.634294 20.5213539,6.02555858 18.7330502,6.0821232 C18.538898,6.08819511 18.3673852,6.20915391 18.2976428,6.38918066 C18.2279003,6.56915414 18.2736085,6.77309569 18.4135762,6.90678419 C19.2135757,7.67067283 19.5761292,8.89378947 19.3599276,10.0988502 C19.2125028,10.9203154 18.6607327,12.4309955 16.6214635,13.3189322 C16.3772576,13.4252971 16.2660989,13.7080136 16.373234,13.9504639 C16.4802082,14.1928076 16.7649184,14.3031672 17.0092315,14.1968555 L17.0092315,14.1968555 Z M5.07989304,16.504873 C5.52533269,16.6421301 5.98997834,16.7517972 6.46090081,16.8308918 C6.48815401,16.8354724 6.51524627,16.8376561 6.54196299,16.8376561 C6.77323968,16.8376561 6.9776387,16.6721168 7.01744555,16.4381352 C7.06191977,16.1770965 6.88477395,15.9296928 6.62184492,15.8855384 C6.19314346,15.8135809 5.77066517,15.7138738 5.36610532,15.5891866 C5.11159903,15.5108377 4.84089103,15.6520895 4.76181383,15.9049258 C4.68284392,16.1577622 4.82517216,16.4263643 5.07989304,16.504873 L5.07989304,16.504873 Z M14.3963039,7.92516035 C15.0237713,9.93240533 15.3693183,12.5921674 15.3693183,15.4144329 C15.3693183,19.2074047 14.7497371,22.6396839 13.7119695,24.5957437 C13.6284395,24.7531872 13.4639546,24.8517226 13.2847702,24.8517226 L9.99217556,24.8517226 C9.81299111,24.8517226 9.64850623,24.7531872 9.56497624,24.595797 C8.52710131,22.6397371 7.90752013,19.2074579 7.90752013,15.4144861 C7.90752013,12.5922206 8.25306714,9.93251185 8.88058823,7.92521361 C9.57195048,5.71365425 10.5256516,4.54465216 11.6384729,4.54465216 C12.7512941,4.54465216 13.7049416,5.71360099 14.3963039,7.92516035 L14.3963039,7.92516035 Z M14.4036537,15.4144329 C14.4036537,9.27381635 12.7930859,5.50332123 11.6384729,5.50332123 C10.4838062,5.50332123 8.8731848,9.27386961 8.8731848,15.4144329 C8.8731848,18.8404803 9.41277676,22.0451162 10.2909415,23.8930003 L11.1556405,23.8930003 L11.1556405,13.9819419 C11.1556405,13.7171748 11.3717885,13.5025807 11.6384729,13.5025807 C11.9051573,13.5025807 12.1213052,13.7171748 12.1213052,13.9819419 L12.1213052,23.892947 L12.9860043,23.892947 C13.8640617,22.045063 14.4036537,18.8404803 14.4036537,15.4144329 L14.4036537,15.4144329 Z M24.8730144,17.2825033 C24.371459,17.2446338 23.7903434,16.4709981 23.4369638,15.7211175 C23.3541312,15.5453517 23.1726399,15.4362704 22.9774147,15.4454315 C22.7821359,15.4543264 22.6115887,15.5793331 22.5453334,15.7619164 C22.2324044,16.6249796 21.6424369,17.1672968 21.0056347,17.1772569 C20.3733926,17.1871637 19.8041333,16.6660981 19.4379318,15.7478552 C19.3617516,15.5567499 19.1717302,15.435578 18.9644342,15.4455913 C18.7576747,15.4560307 18.5805825,15.5962705 18.5243594,15.7940869 C18.2656685,16.7037013 17.3938343,17.172197 16.7259162,17.2969907 C16.4638456,17.3459388 16.2913671,17.5965914 16.3407233,17.8567247 C16.3843392,18.0869246 16.5870215,18.2475106 16.8146501,18.2475106 C16.8442638,18.2475106 16.8743067,18.2447942 16.9045106,18.2391484 C17.7688341,18.0776569 18.5177607,17.6102798 18.9968913,16.9694272 C19.5212472,17.7325702 20.2269871,18.1476437 21.0208171,18.1358727 C21.8031665,18.1236756 22.5208699,17.6833025 23.0226936,16.9421569 C23.4272535,17.5430095 24.0320278,18.1805066 24.7997312,18.238456 C25.0653963,18.2586424 25.297585,18.060826 25.3178103,17.7968046 C25.3380356,17.5328364 25.1388941,17.3025832 24.8730144,17.2825033 L24.8730144,17.2825033 Z M24.8730144,20.6881513 C24.3716199,20.6502818 23.7904507,19.8765929 23.4369101,19.1267122 C23.3540239,18.9509465 23.1730154,18.8413858 22.9773611,18.8510796 C22.7820822,18.8600276 22.6115351,18.9849811 22.5453334,19.1675644 C22.2324044,20.0306276 21.6424369,20.5729449 21.0056347,20.5829049 C20.3733926,20.5939302 19.8041333,20.0717461 19.4379318,19.1535032 C19.3617516,18.9623979 19.1717302,18.841013 18.9644342,18.8512393 C18.7576747,18.8616788 18.5805825,19.0019185 18.5243594,19.1997349 C18.2656685,20.1092961 17.3938343,20.5777917 16.7259162,20.7025854 C16.4638456,20.7515335 16.2913671,21.0021861 16.3407233,21.2623195 C16.3843392,21.4925194 16.5870215,21.6531053 16.8146501,21.6531053 C16.8442638,21.6531053 16.8743067,21.650389 16.9045106,21.6447432 C17.7688341,21.4832517 18.5177607,21.0158746 18.9968913,20.375022 C19.5136828,21.1271396 20.208264,21.541787 20.9864824,21.541787 C20.9979094,21.541787 21.0093365,21.5416805 21.0208171,21.5415207 C21.8031665,21.5293236 22.5209236,21.088844 23.0228009,20.3476984 C23.4274144,20.948551 24.0322961,21.5861013 24.7997312,21.644104 C25.0657182,21.663598 25.297585,21.4664741 25.3178103,21.2025058 C25.3380356,20.9385376 25.1388941,20.7082312 24.8730144,20.6881513 L24.8730144,20.6881513 Z" id="XMLID_746_"></path>
                <path d="M30,15 C30,6.71572875 23.2842712,0 15,0 C6.71572875,0 0,6.71572875 0,15 C0,23.2842712 6.71572875,30 15,30 C23.2842712,30 30,23.2842712 30,15 Z M1.15384615,15 C1.15384615,7.35298039 7.35298039,1.15384615 15,1.15384615 C22.6470196,1.15384615 28.8461538,7.35298039 28.8461538,15 C28.8461538,22.6470196 22.6470196,28.8461538 15,28.8461538 C7.35298039,28.8461538 1.15384615,22.6470196 1.15384615,15 Z" id="Oval"></path>
            </g>
            <g id="Group" transform="translate(198.000000, 182.000000)"></g>
        </g>
    </g>
</svg>