<?xml version="1.0" encoding="UTF-8" standalone="no"?>
<svg width="52px" height="52px" viewBox="0 0 52 52" version="1.1" xmlns="http://www.w3.org/2000/svg" xmlns:xlink="http://www.w3.org/1999/xlink">
    <!-- Generator: Sketch 39 (31667) - http://www.bohemiancoding.com/sketch -->
    <title>logo</title>
    <desc>Created with Sketch.</desc>
    <defs></defs>
    <g id="Page-1" stroke="none" stroke-width="1" fill="none" fill-rule="evenodd">
        <g id="Artboard" transform="translate(-198.000000, -201.000000)">
            <g id="logo" transform="translate(199.000000, 202.000000)">
                <g id="OK">
                    <g id="surfing" transform="translate(6.862745, 6.862745)" fill="#FFFFFF">
                        <g id="Capa_1">
                            <path d="M4.64451797,28.5336585 C4.57542645,28.9392265 4.2212278,29.2261614 3.82034821,29.2261614 C3.77394624,29.2261614 3.72707931,29.2222839 3.67984043,29.2144366 C2.86441172,29.0776162 2.05911892,28.8874341 1.28609362,28.6493372 C0.844577429,28.5133478 0.597782152,28.0477709 0.73475632,27.6095212 C0.871730489,27.1712715 1.34049273,26.9262504 1.78210191,27.0621476 C2.48417589,27.2784566 3.21656459,27.45119 3.95881022,27.5758239 C4.41455387,27.6524507 4.72151363,28.0812836 4.64451797,28.5336585 L4.64451797,28.5336585 Z M3.33605665,25.1546026 C3.38329554,25.1625422 3.43025545,25.1663274 3.47656444,25.1663274 C3.87753702,25.1663274 4.23173567,24.8793925 4.30073419,24.4738245 C4.37782285,24.0213573 4.0707701,23.5925244 3.61502644,23.5159899 C2.87250184,23.391356 2.14020614,23.2185303 1.43841113,23.0023136 C0.997359885,22.8665088 0.528039703,23.1113452 0.391065535,23.5495949 C0.254091367,23.9878446 0.500886644,24.4534215 0.942309846,24.5894109 C1.71505617,24.8275079 2.52034898,25.01769 3.33605665,25.1546026 L3.33605665,25.1546026 Z M21.6199229,16.7451378 C24.722067,15.3944755 26.8078311,12.9116759 27.3422443,9.93329491 C27.6904915,7.99242192 27.3367578,6.01720537 26.4091833,4.43066195 C28.28665,4.69627065 29.8891455,5.5136844 31.1884938,6.8720093 C33.5308172,9.32074236 34.6577621,13.3053344 34.280223,17.8041566 C34.2418182,18.2614246 34.5841141,18.6630227 35.0447862,18.7011515 C35.0684057,18.7030902 35.0918391,18.7041057 35.1151796,18.7041057 C35.545909,18.7041057 35.9118243,18.3759955 35.9481834,17.9421772 C36.3653362,12.9716848 35.0727762,8.51966949 32.4021984,5.72777775 C30.401892,3.63669783 27.7076017,2.58155645 24.6078753,2.67960178 C24.2713448,2.69012643 23.974056,2.89978835 23.8531691,3.21183471 C23.7322821,3.52378875 23.8115096,3.87728743 24.0541203,4.10901416 C25.4407861,5.43308781 26.0692121,7.55315666 25.6944627,9.64192854 C25.4389263,11.0658016 24.4825249,13.6843138 20.9477916,15.223404 C20.5245015,15.4077698 20.3318263,15.8978119 20.5175272,16.3180589 C20.7029492,16.7381213 21.1964467,16.9294113 21.6199229,16.7451378 L21.6199229,16.7451378 Z M0.942402836,20.7457014 C1.71449823,20.9836137 2.51988403,21.1737034 3.33614964,21.3108007 C3.38338853,21.3187404 3.43034844,21.3225256 3.47665743,21.3225256 C3.87753702,21.3225256 4.23182866,21.0355906 4.30082718,20.6300227 C4.37791584,20.1775554 4.07086309,19.7487225 3.61511943,19.672188 C2.87203689,19.5474618 2.13974119,19.3746361 1.43850412,19.1585117 C0.997359885,19.0227069 0.528132693,19.2675433 0.391065535,19.705793 C0.254184357,20.1440428 0.500886644,20.6096196 0.942402836,20.7457014 L0.942402836,20.7457014 Z M17.0908483,5.87419951 C18.1784585,9.35342413 18.7774067,13.9636783 18.7774067,18.8556052 C18.7774067,25.4300897 17.7034659,31.3793736 15.9046687,34.7698774 C15.7598834,35.0427795 15.4747763,35.2135741 15.1641899,35.2135741 L9.45702587,35.2135741 C9.1464395,35.2135741 8.86133237,35.0427795 8.71654705,34.7699697 C6.91756384,31.3794659 5.84362313,25.430182 5.84362313,18.8556975 C5.84362313,13.9637707 6.44257128,9.35360878 7.5302745,5.87429183 C8.72863574,2.04092228 10.3817177,0.0146519864 12.3106079,0.0146519864 C14.239498,0.0146519864 15.892487,2.04082995 17.0908483,5.87419951 L17.0908483,5.87419951 Z M17.1035879,18.8556052 C17.1035879,8.21186991 14.3119372,1.67634503 12.3106079,1.67634503 C10.3091856,1.67634503 7.51744189,8.21196223 7.51744189,18.8556052 C7.51744189,24.7940875 8.45273462,30.3487897 9.9748868,33.5517887 L11.4736985,33.5517887 L11.4736985,16.3726209 C11.4736985,15.9136912 11.8483549,15.5417282 12.3106079,15.5417282 C12.7728608,15.5417282 13.1475173,15.9136912 13.1475173,16.3726209 L13.1475173,33.5516964 L14.646329,33.5516964 C16.1682952,30.3486974 17.1035879,24.7940875 17.1035879,18.8556052 L17.1035879,18.8556052 Z M35.2504799,22.093594 C34.3811171,22.0279534 33.3738501,20.686985 32.7613255,19.3871919 C32.617749,19.0825312 32.3031641,18.893457 31.9647737,18.9093362 C31.6262904,18.9247539 31.3306754,19.1414323 31.2158328,19.4579101 C30.6734226,20.9538862 29.6508123,21.8939028 28.5470218,21.9111669 C27.4511355,21.9283386 26.4644193,21.0251583 25.82967,19.4335372 C25.6976243,19.102288 25.368254,18.8922568 25.0089409,18.9096132 C24.6505577,18.9277082 24.3435979,19.1707905 24.2461445,19.5136722 C23.7977471,21.0903372 22.2865677,21.9023963 21.128843,22.1187054 C20.6745872,22.2035488 20.3756246,22.6380133 20.4611753,23.0889111 C20.5367762,23.4879242 20.8880921,23.7662733 21.2826484,23.7662733 C21.3339788,23.7662733 21.3860532,23.7615649 21.4384065,23.7517788 C22.9365673,23.4718603 24.2347067,22.6617399 25.0651998,21.5509287 C25.9740834,22.8737099 27.1973659,23.5931706 28.573338,23.5727676 C29.9294101,23.551626 31.1734294,22.7883126 32.0432572,21.5036602 C32.7444943,22.545138 33.7927698,23.6501329 35.1234557,23.7505786 C35.5839418,23.7855684 35.9864023,23.4426867 36.0214595,22.9850495 C36.0565167,22.5275046 35.711338,22.1283991 35.2504799,22.093594 L35.2504799,22.093594 Z M35.2504799,27.9967172 C34.3813961,27.9310767 33.3740361,26.5900159 32.7612325,25.2902228 C32.617563,24.9855621 32.303815,24.795657 31.9646807,24.8124595 C31.6261974,24.8279695 31.3305824,25.0445555 31.2158328,25.3610333 C30.6734226,26.8570094 29.6508123,27.797026 28.5470218,27.8142901 C27.4511355,27.8334006 26.4644193,26.9282815 25.82967,25.3366604 C25.6976243,25.0054112 25.368254,24.7950107 25.0089409,24.8127364 C24.6505577,24.8308314 24.3435979,25.0739137 24.2461445,25.4167954 C23.7977471,26.9933681 22.2865677,27.8054272 21.128843,28.0217363 C20.6745872,28.1065797 20.3756246,28.5410442 20.4611753,28.991942 C20.5367762,29.3909551 20.8880921,29.6693042 21.2826484,29.6693042 C21.3339788,29.6693042 21.3860532,29.6645958 21.4384065,29.6548097 C22.9365673,29.3748912 24.2347067,28.5647708 25.0651998,27.4539596 C25.9609718,28.7576302 27.1649125,29.4763524 28.5138244,29.4763524 C28.5336312,29.4763524 28.5534381,29.4761678 28.573338,29.4758908 C29.9294101,29.4547492 31.1735224,28.6912512 32.0434432,27.4065987 C32.7447733,28.4480766 33.7932347,29.5531638 35.1234557,29.6537018 C35.5844998,29.6874915 35.9864023,29.3458099 36.0214595,28.888265 C36.0565167,28.4307201 35.711338,28.0315224 35.2504799,27.9967172 L35.2504799,27.9967172 Z" id="XMLID_746_"></path>
                        </g>
                    </g>
                    <circle id="Oval" stroke="#FFFFFF" stroke-width="2" cx="25" cy="25" r="25"></circle>
                </g>
            </g>
            <g id="Group" transform="translate(198.000000, 182.000000)"></g>
        </g>
    </g>
</svg>